<?xml version="1.0" encoding="UTF-8"?>
<svg version="1.1" viewBox="0 0 2048 511" width="1280" height="1280" xmlns="http://www.w3.org/2000/svg">
<path transform="translate(86)" d="m0 0h65l38 4 29 5 28 7 29 10 20 9 23 12 18 12 19 14 17 14 14 12 12 12 3 4 3-12 5-8 6-5 5-2 27-3 3 7 13 2-3 12-4 9v7l3 6 5 4 20 9 6 7 1 21 4 19 3 14-1 17-6 25-5 13-13 22-11 16-10 13-9 10-7 7-11 9-14 12-19 14-15 10-19 11-23 12-26 11-36 12-32 8-15 3h-5l4-2 20-6 27-10 28-13 21-12 15-10 14-11 10-9 12-12 10-13 9-15 7-16 4-14 6-18 7-11 7-6 16-8 6-9 1-4v-15l-7-21-7-16-9-15-10-13-9-9-7-8-24-24-11-9-15-11-20-12-21-11-26-11-21-7-30-7-28-5-27-3h-24l20 8 28 14 21 13 16 12 10 9 9 12 5 11 2 12-1 14-4 15-7 16-7 15-2 9v19l4 12 6 8 8 6 12 5 16 2 55 5 15 2 1 2-39 3-26 4-21 5-17 6-15 8-13 11-8 7-6 5-7 8-8 10-10 15-7 15-6 21-2 13 10-10 13-10 16-9 15-6 11-3 38-1 22-2 19-4 16-6 12-9 13-12 5-5 8-9 3-3-1 5-8 17-10 14-11 12-9 9-15 11-14 8-36 14-37 13-16 5-24 10-23 12-11 8-10 9-12 13-10 15-6 22-6 11-8 6-8 3-7-1-5-6-1-8 3-10 8-9 8-6 10-10 9-14 5-11 4-13 6-36 6-26 7-21 7-14 12-19 10-13 11-12 7-7 13-9 18-8 23-8-8-3-21-9-15-8-18-12-14-11-13-12-7-7-9-11-10-14-9-16-8-17-7-21-5-23-2-17-1-25-3-12-6-10-6-4-7-2h-12l-16 4-16 7-15 9-6 2-9-1-7-8 1-8 6-7 14-7 20-4z" fill="#5A01B1"/>
<path transform="translate(765,184)" d="m0 0 22 2 16 5 10 6 10 9 7 11 5 13 2 10v128h-31l-1-1v-27l-7 11-9 9-13 8-13 4-6 1h-19l-16-4-13-7-10-9-7-11-4-12-1-7v-10l3-14 5-10 7-9 11-8 12-6 16-5 15-3 22-2h25l-2-16-5-12-5-5-8-5-12-3h-15l-17 4-16 7-8 5h-2l-13-23v-3l13-8 14-6 19-5zm13 98-18 2-15 4-12 6-8 9-3 10v7l3 9 4 6 7 6 12 4h15l11-4 10-7 8-9 8-16 3-12v-15z" fill="#5A01B1"/>
<path transform="translate(1033,189)" d="m0 0h38l4 8 21 55 22 57 5 17 10-30 24-64 15-41 3-2h35l-1 6-22 56-18 45-27 68-16 40-8 14-11 12-11 7-11 4-11 2h-12l-16-4-12-6 1-5 10-22 6 2 11 4h10l10-4 9-8 6-10 9-21-1-7-16-38-23-54-19-45-14-33z" fill="#5A01B1"/>
<path transform="translate(551,118)" d="m0 0h137v31h-102v81h69l18 1v30h-87v107h-35z" fill="#5B03B1"/>
<path transform="translate(1343,121)" d="m0 0h22l22 3 20 6 19 9 12 8-1 5-6 8-4-1-15-9-20-8-17-4-7-1h-28l-16 3-16 6-14 8-10 8-10 10-9 13-8 16-5 14-3 16-1 18 2 20 4 17 8 19 10 15 11 12 10 8 14 8 15 6 15 3 19 1 19-3 18-6 15-8 11-8 10-9 5-5 1-48h-44v-13l1-1h57l1 1v110h-15l-1-29-12 11-14 9-15 7-17 5-13 2h-24l-17-3-18-6-17-9-13-10-13-13-10-14-9-17-7-21-3-17v-32l4-21 7-19 9-16 10-13 15-15 15-10 16-8 20-6z" fill="#039BFF"/>
<path transform="translate(1778,194)" d="m0 0h16l12 34 21 61 15 43 5 16 17-50 17-48 18-51 2-3h17l15 42 35 100 3 10 14-41 16-47 15-43 8-23h16l-2 9-22 63-21 60-15 42-1 1h-15l-4-8-22-62-18-50-10-29v-4h-2l-1 7-12 35-30 84-10 27h-16l-4-10-17-49-32-91-8-23z" fill="#039BFF"/>
<path transform="translate(1006,188)" d="m0 0h18v35h-18l-12 4-11 7-8 9-7 12-5 15-2 14-1 84h-35v-178l18-1 16 1v42l5-12 7-10 8-9 10-7 12-5z" fill="#5A01B1"/>
<path transform="translate(1654,189)" d="m0 0h13l14 2 16 5 13 7 10 8 8 7 10 14 7 14 4 13 2 15v12l-2 16-6 18-9 16-11 13-10 8-14 8-13 5-15 3h-21l-14-3-13-5-11-6-10-8-10-10-10-15-6-14-4-17v-29l4-17 8-17 9-12 12-12 14-9 14-6 13-3zm-2 15-17 4-14 7-11 9-9 10-8 14-5 16-1 7v19l3 15 7 16 7 10 9 10 10 7 14 7 12 3 15 1 14-2 14-5 12-7 12-11 8-11 6-12 4-14 1-5v-23l-4-16-8-16-7-9-8-8-14-9-14-5-9-2z" fill="#039BFF"/>
<path transform="translate(865,190)" d="m0 0h34v178h-34z" fill="#5A01B1"/>
<path transform="translate(1503,126)" d="m0 0h15l1 209 3 11 5 6 7 3h9l1 1v13l-1 1h-13l-11-4-8-6-5-8-2-6-1-7z" fill="#039BFF"/>
<path transform="translate(864,118)" d="m0 0h35v35l-34 1-1-1z" fill="#5A01B1"/>
<path transform="translate(372,292)" d="m0 0" fill="#5A01B1"/>
</svg>
